<svg aria-hidden="true" style="position: absolute; width: 0; height: 0; overflow: hidden;" version="1.1" xmlns="http://www.w3.org/2000/svg" xmlns:xlink="http://www.w3.org/1999/xlink">
<defs>
<symbol id="Logo" viewBox="0 0 36 32">
<path fill="#aa182c" style="fill: var(--color1, #aa182c)" d="M17.738 0l-16 16 16 16 16-16-16-16zM21.494 19.755l-7.511 0.001-0-7.512 7.512 0-0.001 7.511zM17.521 8.181l-7.602 7.602-3.62-3.62 7.602-7.602 3.62 3.62zM17.956 23.819l7.602-7.602 3.62 3.62-7.602 7.602-3.62-3.62zM25.557 15.782l-7.601-7.601 3.62-3.62 7.601 7.601-3.62 3.62zM9.919 16.218l7.601 7.601-3.619 3.619-7.601-7.601 3.619-3.619z"></path>
<path fill="#40474e" style="fill: var(--color2, #40474e)" d="M0 11.907h35.721v8.186h-35.721v-8.186z"></path>
<path fill="#fff" style="fill: var(--color3, #fff)" d="M5.713 17.488c-0.463 0-0.85-0.143-1.16-0.428-0.307-0.288-0.46-0.641-0.46-1.061 0-0.417 0.155-0.769 0.465-1.057s0.704-0.432 1.182-0.432c0.274 0 0.504 0.041 0.691 0.123 0.187 0.079 0.364 0.195 0.533 0.345l-0.415 0.436c-0.135-0.112-0.263-0.193-0.384-0.243-0.117-0.052-0.26-0.078-0.429-0.078-0.265 0-0.484 0.088-0.659 0.263-0.171 0.173-0.257 0.386-0.257 0.641 0 0.252 0.086 0.466 0.257 0.641 0.175 0.175 0.394 0.263 0.659 0.263 0.168 0 0.314-0.027 0.438-0.082s0.254-0.14 0.393-0.255l0.442 0.432c-0.171 0.167-0.358 0.291-0.56 0.37-0.199 0.079-0.444 0.119-0.736 0.119z"></path>
<path fill="#fff" style="fill: var(--color3, #fff)" d="M7.903 17.439v-2.878h2.383v0.563h-1.692v0.584h1.489v0.563h-1.489v0.604h1.715v0.563h-2.405z"></path>
<path fill="#fff" style="fill: var(--color3, #fff)" d="M11.265 17.439v-2.878h1.444c0.4 0 0.707 0.097 0.921 0.292 0.181 0.164 0.271 0.386 0.271 0.666 0 0.441-0.226 0.739-0.677 0.892l0.772 1.028h-0.812l-0.686-0.921h-0.537v0.921h-0.695zM11.96 15.959h0.704c0.168 0 0.299-0.037 0.393-0.111 0.093-0.077 0.14-0.178 0.14-0.304 0-0.134-0.048-0.236-0.144-0.304-0.096-0.071-0.23-0.107-0.402-0.107h-0.691v0.826z"></path>
<path fill="#fff" style="fill: var(--color3, #fff)" d="M14.594 17.439l1.354-2.899h0.641l1.354 2.899h-0.727l-0.289-0.645h-1.336l-0.289 0.645h-0.709zM15.84 16.234h0.839l-0.42-0.933-0.42 0.933z"></path>
<path fill="#fff" style="fill: var(--color3, #fff)" d="M18.769 17.439v-2.878h0.749l0.83 1.217 0.83-1.217h0.749v2.878h-0.691v-1.879l-0.889 1.229h-0.018l-0.88-1.217v1.867h-0.681z"></path>
<path fill="#fff" style="fill: var(--color3, #fff)" d="M23.057 17.439v-2.878h0.695v2.878h-0.695z"></path>
<path fill="#fff" style="fill: var(--color3, #fff)" d="M26.36 17.488c-0.463 0-0.85-0.143-1.16-0.428-0.307-0.288-0.46-0.641-0.46-1.061 0-0.417 0.155-0.769 0.465-1.057s0.704-0.432 1.182-0.432c0.274 0 0.504 0.041 0.691 0.123 0.187 0.079 0.364 0.195 0.532 0.345l-0.415 0.436c-0.135-0.112-0.263-0.193-0.384-0.243-0.117-0.052-0.26-0.078-0.429-0.078-0.265 0-0.484 0.088-0.659 0.263-0.172 0.173-0.257 0.386-0.257 0.641 0 0.252 0.086 0.466 0.257 0.641 0.174 0.175 0.394 0.263 0.659 0.263 0.168 0 0.314-0.027 0.438-0.082s0.254-0.14 0.393-0.255l0.442 0.432c-0.172 0.167-0.358 0.291-0.56 0.37-0.199 0.079-0.444 0.119-0.736 0.119z"></path>
<path fill="#fff" style="fill: var(--color3, #fff)" d="M28.279 17.439l1.354-2.899h0.641l1.354 2.899h-0.727l-0.289-0.645h-1.336l-0.289 0.645h-0.709zM29.525 16.234h0.839l-0.42-0.933-0.42 0.933z"></path>
</symbol>
<symbol id="Union-1" viewBox="0 0 32 32">
<path fill="#aa182c" style="fill: var(--color1, #aa182c)" d="M24.601 23.467c4.753-5.341 4.57-13.529-0.551-18.65-5.311-5.311-13.922-5.311-19.233 0s-5.311 13.922 0 19.233c5.122 5.122 13.312 5.304 18.653 0.548l6.806 6.806 1.131-1.131-6.806-6.806zM22.919 5.948c4.686 4.686 4.686 12.284 0 16.971s-12.284 4.686-16.971 0c-4.686-4.686-4.686-12.284 0-16.971s12.284-4.686 16.971 0z"></path>
</symbol>
<symbol id="Union" viewBox="0 0 32 32">
<path fill="#40474e" style="fill: var(--color2, #40474e)" d="M15.998 0.914c-4.208 0-7.619 3.411-7.619 7.619s3.411 7.619 7.619 7.619c4.208 0 7.619-3.411 7.619-7.619s-3.411-7.619-7.619-7.619zM9.598 8.534c0-3.535 2.865-6.4 6.4-6.4s6.4 2.865 6.4 6.4c0 3.535-2.865 6.4-6.4 6.4s-6.4-2.865-6.4-6.4z"></path>
<path fill="#40474e" style="fill: var(--color2, #40474e)" d="M2.895 27.027c0-2.916 1.404-5.069 3.73-6.522 2.353-1.469 5.657-2.219 9.374-2.219s7.021 0.75 9.374 2.219c2.326 1.453 3.73 3.606 3.73 6.522v4.364h1.219v-4.364c0-3.387-1.667-5.909-4.304-7.556-2.611-1.63-6.164-2.404-10.020-2.404s-7.409 0.774-10.020 2.404c-2.637 1.647-4.304 4.169-4.304 7.556v4.364h1.219v-4.364z"></path>
</symbol>
<symbol id="Frame-4" viewBox="0 0 32 32">
<path fill="#40474e" style="fill: var(--color2, #40474e)" d="M26.371 3.438c-3.507-1.62-7.613-0.613-10.067 2.321-2.453-2.89-6.613-3.81-10.12-2.189-4.24 2.014-6.040 7.094-4.027 11.341 1.92 4.029 13.36 13.837 13.84 14.275 0.080 0.087 0.213 0.131 0.347 0.131 0.040 0 0.093 0 0.093 0 0.173 0.044 0.347 0 0.48-0.131 0.48-0.438 11.773-10.422 13.653-14.45 1.933-4.291 0.053-9.327-4.2-11.297zM29.571 14.254c-1.533 3.328-10.387 11.429-12.787 13.574-0.093 0.088-0.227 0.131-0.347 0.131-0.133 0-0.267-0.044-0.36-0.131-2.453-2.102-11.387-10.071-12.96-13.399-1.747-3.678-0.173-8.145 3.547-9.852 1.013-0.482 2.107-0.701 3.16-0.701 2.32 0 4.587 1.095 6.040 3.109 0.080 0.131 0.267 0.219 0.44 0.219s0.347-0.088 0.44-0.219c2.053-2.934 5.907-4.029 9.147-2.54 3.72 1.708 5.387 6.087 3.68 9.809z"></path>
</symbol>
<symbol id="Vector" viewBox="0 0 32 32">
<path fill="#40474e" style="fill: var(--color2, #40474e)" d="M31.956 22.010c0-0.017 0-0.035 0-0.052s0-0.033 0-0.050c0 0 0-0.015 0-0.023l-5.993-19.735c0 0 0 0 0-0.013-0.015-0.046-0.044-0.089-0.073-0.127v-0.012c-0.015-0.036-0.058-0.069-0.087-0.095-0.044-0.027-0.073-0.048-0.116-0.062-0.015-0.002-0.029 0-0.029 0-0.058-0.030-0.131-0.045-0.204-0.045-0.029-0.002-0.044-0.002-0.073 0l-5.6 1.037c-0.291-0.938-0.916-1.739-1.745-2.249-0.844-0.51-1.833-0.695-2.807-0.518-0.96 0.177-1.833 0.702-2.429 1.477-0.611 0.774-0.902 1.743-0.844 2.722l-5.585 1.029-0.044 0.015h-0.029c-0.044 0.016-0.087 0.038-0.131 0.065l-0.015 0.015c-0.029 0.027-0.058 0.059-0.087 0.095-0.029 0.040-0.044 0.083-0.073 0.127 0 0 0 0 0 0.015l-5.993 19.735c0 0 0 0.015 0 0.022 0 0.017 0 0.033 0 0.050s0 0.035 0 0.052c0 0 0 0 0 0.020 0 1.722 0.684 3.375 1.906 4.593s2.865 1.902 4.596 1.902c1.716 0 3.375-0.684 4.596-1.902s1.905-2.87 1.905-4.593c0 0 0-0.015 0-0.020 0-0.017 0-0.035 0-0.052s0-0.033 0-0.050c0 0 0-0.015 0-0.022l-5.905-19.178 5.062-0.934c0.247 0.809 0.756 1.516 1.44 2.019s1.513 0.773 2.356 0.774c0.247 0 0.495-0.021 0.727-0.065 0.96-0.174 1.818-0.692 2.429-1.456 0.596-0.764 0.902-1.723 0.844-2.696l4.8-0.887-5.76 18.948c0 0 0 0.015 0 0.023 0 0.017 0 0.033 0 0.050s0 0.035 0 0.052c0 0 0 0 0 0.020 0 1.723 0.698 3.375 1.905 4.593 1.222 1.218 2.88 1.902 4.596 1.902 1.731 0 3.374-0.684 4.596-1.902s1.906-2.87 1.906-4.593c0 0-0.044-0.015-0.044-0.020zM30.778 21.53h-10.647l5.324-17.517 5.324 17.517zM6.458 7.511l5.324 17.516h-10.647l5.324-17.516zM6.458 31.023c-1.367 0-2.691-0.512-3.694-1.437-1.018-0.924-1.644-2.194-1.774-3.559h10.953c-0.131 1.366-0.756 2.635-1.774 3.559-1.004 0.924-2.327 1.437-3.709 1.437zM16.495 6.994c-0.524 0.095-1.047 0.050-1.556-0.13-0.233-0.088-0.465-0.208-0.684-0.355-0.407-0.284-0.742-0.666-0.975-1.112-0.131-0.258-0.218-0.533-0.276-0.817-0.087-0.529-0.043-1.075 0.146-1.579 0.16-0.428 0.422-0.814 0.756-1.129 0.422-0.403 0.945-0.673 1.513-0.777 0.189-0.034 0.364-0.050 0.538-0.050 0.291 0 0.582 0.042 0.858 0.125 0.305 0.092 0.582 0.229 0.843 0.407 0.567 0.387 0.975 0.953 1.178 1.606 0.189 0.652 0.16 1.352-0.102 1.984-0.16 0.417-0.422 0.79-0.756 1.094-0.407 0.378-0.931 0.631-1.484 0.732zM25.455 27.526c-1.367 0-2.691-0.512-3.709-1.437-1.004-0.924-1.644-2.194-1.76-3.559h10.953c-0.131 1.365-0.756 2.635-1.775 3.559-1.004 0.924-2.327 1.437-3.709 1.437z"></path>
</symbol>
<symbol id="Frame-3" viewBox="0 0 32 32">
<path fill="#aa182c" style="fill: var(--color1, #aa182c)" d="M23.167 22.222c3.961-4.451 3.808-11.274-0.459-15.541-4.426-4.426-11.602-4.426-16.028 0s-4.426 11.602 0 16.028c4.268 4.268 11.094 4.42 15.544 0.457l5.672 5.672 0.943-0.943-5.672-5.672zM21.765 7.624c3.905 3.905 3.905 10.237 0 14.142s-10.237 3.905-14.142 0c-3.905-3.905-3.905-10.237 0-14.142s10.237-3.905 14.142 0z"></path>
</symbol>
<symbol id="Logo-1" viewBox="0 0 35 32">
<path fill="#fff" style="fill: var(--color3, #fff)" d="M17.563-0l-15.879 15.879 15.879 15.879 15.879-15.879-15.879-15.879zM21.29 19.606l-7.454 0.001-0-7.455 7.455 0-0.001 7.454zM17.348 8.119l-7.544 7.544-3.593-3.593 7.544-7.544 3.593 3.593zM17.779 23.639l7.544-7.544 3.593 3.592-7.544 7.544-3.592-3.592zM25.322 15.663l-7.544-7.544 3.593-3.593 7.544 7.544-3.593 3.592zM9.803 16.095l7.544 7.544-3.592 3.592-7.544-7.544 3.592-3.592z"></path>
<path fill="#40474e" style="fill: var(--color2, #40474e)" d="M0 12.070h35.368v7.579h-35.368v-7.579z"></path>
<path fill="#fff" style="fill: var(--color3, #fff)" d="M5.52 17.457c-0.461 0-0.846-0.156-1.154-0.467-0.305-0.314-0.458-0.701-0.458-1.159 0-0.455 0.154-0.84 0.463-1.154s0.701-0.472 1.177-0.472c0.272 0 0.502 0.045 0.687 0.135 0.186 0.087 0.362 0.213 0.53 0.377l-0.413 0.476c-0.135-0.123-0.262-0.211-0.382-0.265-0.117-0.057-0.259-0.085-0.427-0.085-0.263 0-0.482 0.096-0.656 0.287-0.171 0.189-0.256 0.422-0.256 0.701 0 0.275 0.085 0.509 0.256 0.701 0.174 0.192 0.392 0.287 0.656 0.287 0.168 0 0.313-0.030 0.436-0.090s0.253-0.153 0.391-0.278l0.44 0.472c-0.171 0.183-0.356 0.317-0.557 0.404-0.198 0.087-0.442 0.13-0.732 0.13zM7.7 17.404v-3.144h2.371v0.615h-1.684v0.638h1.482v0.615h-1.482v0.66h1.707v0.615h-2.394zM11.045 17.404v-3.144h1.437c0.398 0 0.704 0.106 0.916 0.319 0.18 0.18 0.269 0.422 0.269 0.728 0 0.482-0.225 0.807-0.674 0.975l0.768 1.123h-0.808l-0.683-1.006h-0.534v1.006h-0.692zM11.737 15.787h0.701c0.168 0 0.298-0.040 0.391-0.121 0.093-0.084 0.139-0.195 0.139-0.332 0-0.147-0.048-0.258-0.144-0.332-0.096-0.078-0.229-0.117-0.4-0.117h-0.687v0.903zM14.358 17.404l1.347-3.166h0.638l1.347 3.166h-0.723l-0.287-0.705h-1.329l-0.287 0.705h-0.705zM15.598 16.088h0.835l-0.418-1.020-0.418 1.020zM18.513 17.404v-3.144h0.746l0.826 1.329 0.826-1.329h0.746v3.144h-0.687v-2.053l-0.885 1.343h-0.018l-0.876-1.329v2.039h-0.678zM22.78 17.404v-3.144h0.692v3.144h-0.692zM26.067 17.457c-0.461 0-0.846-0.156-1.154-0.467-0.305-0.314-0.458-0.701-0.458-1.159 0-0.455 0.154-0.84 0.463-1.154s0.701-0.472 1.177-0.472c0.272 0 0.502 0.045 0.687 0.135 0.186 0.087 0.362 0.213 0.53 0.377l-0.413 0.476c-0.135-0.123-0.262-0.211-0.382-0.265-0.117-0.057-0.259-0.085-0.427-0.085-0.263 0-0.482 0.096-0.656 0.287-0.171 0.189-0.256 0.422-0.256 0.701 0 0.275 0.085 0.509 0.256 0.701 0.174 0.192 0.392 0.287 0.656 0.287 0.168 0 0.313-0.030 0.436-0.090s0.253-0.153 0.391-0.278l0.44 0.472c-0.171 0.183-0.356 0.317-0.557 0.404-0.198 0.087-0.442 0.13-0.732 0.13zM27.978 17.404l1.347-3.166h0.638l1.347 3.166h-0.723l-0.287-0.705h-1.329l-0.287 0.705h-0.705zM29.217 16.088h0.835l-0.418-1.020-0.418 1.020z"></path>
</symbol>
</defs>
</svg>
