<svg aria-hidden="true" style="position: absolute; width: 0; height: 0; overflow: hidden;" version="1.1" xmlns="http://www.w3.org/2000/svg" xmlns:xlink="http://www.w3.org/1999/xlink">
<defs>
<symbol id="chat" viewBox="0 0 41 32">
<path fill="#6a737a" style="fill: var(--color1, #6a737a)" d="M34.69 32l-2.598-4.457h-17.398c-1.555 0-2.811-1.384-2.811-3.097v-14.264c0-1.713 1.256-3.097 2.811-3.097h23.638c1.554 0 2.811 1.384 2.811 3.097v14.264c0 1.713-1.256 3.097-2.811 3.097h-1.065l-2.577 4.457zM14.694 8.751c-0.724 0-1.32 0.657-1.32 1.455v14.264c0 0.798 0.596 1.454 1.32 1.454h18.208l1.789 3.050 1.768-3.050h1.874c0.724 0 1.32-0.657 1.32-1.454v-14.287c0-0.798-0.596-1.455-1.32-1.455l-23.638 0.023zM34.605 15.367c0-0.446-0.341-0.821-0.745-0.821h-14.673c-0.405 0-0.745 0.375-0.745 0.821s0.341 0.821 0.745 0.821h14.673c0.405 0 0.745-0.375 0.745-0.821zM32.156 19.707c0-0.446-0.341-0.821-0.745-0.821h-12.245c-0.405 0-0.745 0.375-0.745 0.821s0.341 0.821 0.745 0.821h12.245c0.405 0 0.745-0.352 0.745-0.821zM10.839 18.815h-2.598l-1.789 3.050-1.768-3.050h-1.874c-0.724 0-1.32-0.657-1.32-1.455v-14.264c0-0.798 0.596-1.455 1.32-1.455h23.638c0.724 0 1.32 0.657 1.32 1.455v2.886h1.491v-2.886c0-1.713-1.256-3.097-2.811-3.097h-23.638c-1.555 0-2.811 1.384-2.811 3.097v14.264c0 1.713 1.256 3.097 2.811 3.097h1.065l2.598 4.457 2.598-4.457h1.789v-1.642h-0.021z"></path>
</symbol>
<symbol id="eye" viewBox="0 0 41 32">
<path fill="#6a737a" style="fill: var(--color1, #6a737a)" d="M20.279 30.122c-7.072 0-13.835-4.467-20.109-13.284-0.107-0.15-0.166-0.33-0.17-0.515s0.049-0.367 0.15-0.521c0.342-0.523 8.517-12.82 20.305-13.102 7.222-0.194 14.119 4.223 20.515 13.067 0.108 0.149 0.169 0.329 0.174 0.514s-0.046 0.368-0.146 0.523c-0.342 0.532-8.52 13.032-20.317 13.314-0.134 0.003-0.268 0.005-0.401 0.005zM1.998 16.297c5.913 8.114 12.193 12.154 18.632 12.001 9.558-0.223 16.856-9.65 18.515-11.978-5.914-7.985-12.2-11.939-18.64-11.804-9.551 0.224-16.842 9.482-18.507 11.78z"></path>
<path fill="#6a737a" style="fill: var(--color1, #6a737a)" d="M20.572 23.883c-1.454 0-2.876-0.438-4.085-1.26s-2.151-1.989-2.708-3.354-0.702-2.869-0.418-4.319c0.284-1.45 0.984-2.782 2.012-3.827s2.338-1.757 3.764-2.046c1.426-0.288 2.904-0.14 4.248 0.425s2.492 1.524 3.299 2.753c0.808 1.229 1.239 2.674 1.239 4.153-0.002 1.982-0.778 3.882-2.156 5.283s-3.247 2.19-5.196 2.192zM20.572 10.752c-1.1 0-2.176 0.332-3.091 0.953s-1.628 1.505-2.049 2.538c-0.421 1.033-0.531 2.171-0.317 3.268s0.744 2.105 1.522 2.896c0.778 0.791 1.769 1.33 2.848 1.548s2.198 0.106 3.214-0.322c1.016-0.428 1.885-1.153 2.497-2.083s0.938-2.024 0.938-3.142c-0.002-1.499-0.588-2.937-1.631-3.997s-2.457-1.657-3.932-1.658z"></path>
</symbol>
</defs>
</svg>
